<svg width="102" height="380" fill="none" xmlns="http://www.w3.org/2000/svg"><path d="M78.58 57.55c-.06 2.2.08 4.87-.1 7.53a7.5396 7.5396 0 0 1-6 7.29 8.3605 8.3605 0 0 1-8.82-3.8c-.44-.76-.46-1.33.55-1.59a3.4318 3.4318 0 0 0 .68-.3c.93-.48 1.59-.54 2.28.58a4.2602 4.2602 0 0 0 5 1.54A4.3696 4.3696 0 0 0 75 64.39c0-.72-.24-.91-.9-.5-3.19 2-6.15 1.3-8.82-1a8 8 0 0 1-2.62-8.15 8.08 8.08 0 0 1 5.67-6.25 6.36 6.36 0 0 1 5.61.64c.42.26.67.38 1.13-.11.84-.9 2-.45 3-.32.71.09.48 1 .48 1.63.05 2.26.03 4.51.03 7.22Zm-7.81 4c2.62 0 4.42-2 4.46-4.9 0-2.76-1.94-5.06-4.38-5.1a4.8693 4.8693 0 0 0-3.3825 1.6015A4.8712 4.8712 0 0 0 66.22 56.68a4.6003 4.6003 0 0 0 4.55 4.86v.01Z" fill="#4D8CF4"/><path d="M34.57 65a8.2802 8.2802 0 0 1-5.8549-14.1348A8.2802 8.2802 0 0 1 34.57 48.44a8.16 8.16 0 0 1 8.35 8.26 8.271 8.271 0 0 1-2.4398 5.8957A8.2686 8.2686 0 0 1 34.57 65Zm0-13a4.5196 4.5196 0 0 0-4.2476 2.8409A4.5198 4.5198 0 0 0 30 56.61a4.649 4.649 0 0 0 1.1901 3.3699A4.6507 4.6507 0 0 0 34.42 61.51a4.569 4.569 0 0 0 3.3071-1.4014A4.5696 4.5696 0 0 0 39 56.75a4.4509 4.4509 0 0 0-2.6886-4.391A4.4511 4.4511 0 0 0 34.53 52h.04Z" fill="#E84D43"/><path d="M52.77 48.36a8.3788 8.3788 0 0 1 6.0691 2.4318 8.3813 8.3813 0 0 1 2.4749 6.0516A8.38 8.38 0 0 1 52.56 65.11a8.2887 8.2887 0 0 1-7.7541-5.2006A8.2897 8.2897 0 0 1 44.21 56.68a8.1798 8.1798 0 0 1 8.56-8.32ZM48 56.68a4.67 4.67 0 1 0 9.3 0 4.7189 4.7189 0 0 0-1.2519-3.4912A4.7191 4.7191 0 0 0 52.66 51.68a4.7791 4.7791 0 0 0-3.3819 1.5196 4.7812 4.7812 0 0 0-.9903 1.6112A4.7816 4.7816 0 0 0 48 56.68Z" fill="#FABF13"/><path d="M94.16 65a8 8 0 0 1-7.73-6.22c-.91-4.51.85-8.42 4.61-10 4.66-1.92 8.72.8 10.29 5.11.28.76-.38.91-.85 1.11-2.84 1.19-5.68 2.35-8.52 3.53-.45.19-1.13.26-1.22.73-.09.47.46 1 .92 1.37a4.3302 4.3302 0 0 0 5.89-.4c.79-.84 1.32-.8 2.19-.19 1.81 1.29 1.85 1.5.08 3A8.2502 8.2502 0 0 1 94.16 65Zm0-13.45a4.42 4.42 0 0 0-4.28 3.57c-.16.89.14 1.12.9.81 1.88-.77 3.74-1.59 5.62-2.36.73-.3.62-.69.18-1.11a3.1198 3.1198 0 0 0-2.39-.94l-.03.03Z" fill="#E84D43"/><path d="M84.63 52.14v11c0 1-.2 1.44-1.3 1.39-2.71-.12-2.43.45-2.44-2.48V41.46c0-1.15.21-1.65 1.49-1.58 2.56.12 2.24-.27 2.25 2.29.01 3.31 0 6.64 0 9.97Z" fill="#40A95C"/><path fill-rule="evenodd" clip-rule="evenodd" d="M15.38 26.39A12.6201 12.6201 0 0 1 2.75 14 12.62 12.62 0 0 1 15.38 1.5a11.8702 11.8702 0 0 1 8.53 3.43l-2.39 2.39a8.7401 8.7401 0 0 0-6.14-2.43 8.9296 8.9296 0 0 0-8.276 5.5981A8.9302 8.9302 0 0 0 6.46 13.94a8.9202 8.9202 0 0 0 8.92 9 8.2905 8.2905 0 0 0 6.29-2.5 7.1198 7.1198 0 0 0 1.85-4.28h-8.13v-3.27h11.45a10.426 10.426 0 0 1 .18 2 11.23 11.23 0 0 1-2.94 8 11.4302 11.4302 0 0 1-8.7 3.49v.01Z" fill="#4285F4"/><path fill-rule="evenodd" clip-rule="evenodd" d="M44.54 18.38a8.0002 8.0002 0 0 1-13.6569 5.6569A8.0001 8.0001 0 1 1 44.54 18.38Zm-3.51 0a4.5212 4.5212 0 0 0-2.6725-4.5588 4.5196 4.5196 0 0 0-5.1704 1.0918 4.5182 4.5182 0 0 0-.9446 1.6113A4.5185 4.5185 0 0 0 32.03 18.38a4.5183 4.5183 0 0 0 .2125 1.8557 4.5182 4.5182 0 0 0 .9446 1.6113 4.5193 4.5193 0 0 0 5.1704 1.0918 4.519 4.519 0 0 0 2.46-2.7031A4.5217 4.5217 0 0 0 41.03 18.38Z" fill="#EA4335"/><path fill-rule="evenodd" clip-rule="evenodd" d="M61.89 18.38a8.0001 8.0001 0 1 1-16.0002.0001A8.0001 8.0001 0 0 1 61.89 18.38Zm-3.51 0a4.5185 4.5185 0 0 0-.2125-1.8557 4.5182 4.5182 0 0 0-.9446-1.6113 4.5193 4.5193 0 0 0-5.1704-1.0918 4.519 4.519 0 0 0-2.46 2.7031A4.5202 4.5202 0 0 0 49.38 18.38a4.52 4.52 0 1 0 9 0Z" fill="#FBBC05"/><path fill-rule="evenodd" clip-rule="evenodd" d="M78.26 10.85v14.38c0 5.92-3.49 8.35-7.62 8.35a7.6302 7.6302 0 0 1-7.1-4.74l3.07-1.28a4.4306 4.4306 0 0 0 4 2.85c2.65 0 4.28-1.63 4.28-4.7v-1.15h-.09a5.4307 5.4307 0 0 1-4.21 1.82 7.7898 7.7898 0 0 1-7.51-8 7.8203 7.8203 0 0 1 7.51-8 5.52 5.52 0 0 1 4.21 1.79h.12v-1.3l3.34-.02Zm-3.1 7.55c0-2.82-1.89-4.89-4.28-4.89-2.39 0-4.28 2.06-4.28 4.89 0 2.83 1.85 4.83 4.28 4.83s4.28-2 4.28-4.83Z" fill="#4285F4"/><path fill-rule="evenodd" clip-rule="evenodd" d="M83.68 2.35V25.9h-3.52V2.35h3.52Z" fill="#34A853"/><path fill-rule="evenodd" clip-rule="evenodd" d="m96.87 21 2.73 1.83a8 8 0 0 1-6.68 3.55 7.8498 7.8498 0 0 1-8-8c0-4.77 3.43-8 7.56-8 4.13 0 6.19 3.31 6.86 5.09l.37.91L89 20.81a4.0896 4.0896 0 0 0 3.88 2.43 4.5908 4.5908 0 0 0 4-2.23l-.01-.01Zm-8.42-2.88 7.17-3a3.1006 3.1006 0 0 0-3-1.7 4.4106 4.4106 0 0 0-4.2 4.67l.03.03ZM42.54 56.38a7.9997 7.9997 0 0 1-4.9386 7.391 7.9996 7.9996 0 0 1-10.9077-5.8303A8 8 0 0 1 34.54 48.38a7.89 7.89 0 0 1 8 8Zm-3.51 0a4.5211 4.5211 0 0 0-.9222-2.4129 4.5208 4.5208 0 0 0-6.8982-.3217A4.5201 4.5201 0 0 0 34.52 61.24a4.6204 4.6204 0 0 0 3.2633-1.4867A4.6208 4.6208 0 0 0 39 56.38h.03Z" fill="#EA4335"/><path fill-rule="evenodd" clip-rule="evenodd" d="M60.64 56.38a8.0004 8.0004 0 0 1-4.9385 7.391A8 8 0 1 1 52.64 48.38a7.9004 7.9004 0 0 1 7.4184 4.9227A7.8986 7.8986 0 0 1 60.64 56.38Zm-3.51 0a4.5195 4.5195 0 0 0-3.0152-3.9267 4.5208 4.5208 0 0 0-4.8052 1.1921 4.521 4.521 0 0 0-1.1428 2.3166A4.5206 4.5206 0 0 0 52.62 61.24a4.6202 4.6202 0 0 0 4.51-4.86Z" fill="#FBBC05"/><path fill-rule="evenodd" clip-rule="evenodd" d="M78 48.85v14.38c0 5.92-3.49 8.35-7.62 8.35a7.6302 7.6302 0 0 1-7.1-4.74l3.07-1.28a4.4306 4.4306 0 0 0 4 2.85c2.65 0 4.28-1.63 4.28-4.7v-1.15h-.12a5.4307 5.4307 0 0 1-4.21 1.82 8.0002 8.0002 0 0 1-5.6569-13.6569A8.0001 8.0001 0 0 1 70.3 48.38a5.5195 5.5195 0 0 1 4.21 1.79h.12v-1.3l3.37-.02Zm-3.1 7.55c0-2.82-1.89-4.89-4.28-4.89-2.39 0-4.28 2.06-4.28 4.89 0 2.83 1.85 4.83 4.28 4.83s4.28-2 4.28-4.83Z" fill="#4285F4"/><path fill-rule="evenodd" clip-rule="evenodd" d="M84.18 40.35V63.9h-3.52V40.35h3.52Z" fill="#34A853"/><path fill-rule="evenodd" clip-rule="evenodd" d="m98.37 59 2.73 1.83a7.9983 7.9983 0 0 1-2.8939 2.6144 7.9982 7.9982 0 0 1-3.7861.9356 7.8498 7.8498 0 0 1-8-8c0-4.77 3.43-8 7.56-8 4.13 0 6.19 3.31 6.86 5.09l.37.91-10.67 4.43a4.0896 4.0896 0 0 0 3.88 2.43 4.5908 4.5908 0 0 0 4-2.23l-.05-.01ZM90 56.13l7.17-3a3.1003 3.1003 0 0 0-3-1.7 4.4097 4.4097 0 0 0-4.17 4.7Z" fill="#EA4335"/><path d="M21.94 50.91h.87c2.07 0 2.23.18 2 2.2-.76 7-6.2 11.6-13.25 10.9A12.2002 12.2002 0 0 1 .88 54c-1.43-7.3 5-15.06 13.61-14a12.1101 12.1101 0 0 1 7.36 3.89c.71.74.6 1.24-.26 1.88-1.06.8-1.71.95-2.79-.14a8.3602 8.3602 0 0 0-9.68-1.57 8.7602 8.7602 0 0 0-2.7555 13.7951A8.7605 8.7605 0 0 0 11 60.54 8.7 8.7 0 0 0 20.71 56c.71-1.45.61-1.69-1-1.91a.8198.8198 0 0 1-.82-.76c-.35-2 0-2.45 2-2.45l1.05.03Z" fill="#4D8CF4"/><path d="M16.05 261.59c-2-.69-3.28-2.22-4.56-3.72A17.8999 17.8999 0 0 1 10.15 237c.85-1.29 1-1.31 2.19-.37 1.19.94 2.48 1.95 3.74 2.9a.8894.8894 0 0 1 .4711 1.014.8857.8857 0 0 1-.1811.356 10.7305 10.7305 0 0 0 2.44 14.1c.1722.177.3294.367.47.57a56.7582 56.7582 0 0 1-3.23 6.02ZM85 95c0-5.31 4.78-8.64 9.12-6.56A7.7002 7.7002 0 0 1 97.79 93c.24.61-.05.88-.62 1.11-2.23.89-4.46 1.82-6.68 2.75-.32.14-.83.14-.84.62-.01.48.56.69.95.86a3.75 3.75 0 0 0 4-1.16 3.2103 3.2103 0 0 1 3.56-.2c.41.38.1.69 0 1a6.388 6.388 0 0 1-2.1129 2.659 6.3827 6.3827 0 0 1-3.1771 1.201 6.5075 6.5075 0 0 1-3.566-.38 6.5002 6.5002 0 0 1-2.824-2.21A6.31 6.31 0 0 1 85 95Zm8.8-3a1.3905 1.3905 0 0 0-.9-.9 3.4906 3.4906 0 0 0-2.8791.1412A3.4895 3.4895 0 0 0 88.23 93.5c-.08.27-.25.56 0 .8s.53.06.8 0c1.3333-.58 2.7033-1.15 4.11-1.71.28-.18.59-.22.66-.59Z" fill="#E84D43"/><path d="M41.25 189.66a19.2419 19.2419 0 0 1-11.51-4.29 3.298 3.298 0 0 1-1.3077-2.114 3.2991 3.2991 0 0 1 .5377-2.426 3.149 3.149 0 0 1 2.1706-1.337c.435-.06.8777-.027 1.2995.095.4218.121.8135.33 1.1499.612a13.718 13.718 0 0 0 8.13 3 3.211 3.211 0 0 1 3.15 2.05 3.1696 3.1696 0 0 1-.52 3.29 3.36 3.36 0 0 1-1.4032.966 3.3663 3.3663 0 0 1-1.6968.154Z" fill="#40A95C"/><path d="M16.05 261.59a56.8348 56.8348 0 0 0 3.23-6.06c.83 0 1.38.69 2.12.94 2.407.836 5.0193.875 7.45.11.3985-.108.8024-.195 1.21-.26l3.29 6a6.6693 6.6693 0 0 1-3.35 1.42 17.8375 17.8375 0 0 1-13.43-1.66c-.23-.08-.48-.2-.52-.49Z" fill="#F6BB34"/><path d="M45.08 207.78c.54.46.31 1.1.28 1.64-.37 5.78-2.45 10.64-7.6 13.79-1.6 1-1.6 1-2.41-.67-.61-1.23-1.22-2.46-1.79-3.7-.21-.48-.47-1 .25-1.38 3.22-1.65 4.26-4.57 4.58-7.91 0-.46.12-.91.17-1.36.3553.112.6665.332.89.63a3.24 3.24 0 0 0 2.563.949 3.2437 3.2437 0 0 0 2.377-1.349c.2-.25.3-.59.69-.64Z" fill="#E84D43"/><path d="M82.46 94.31v8.11c0 1-.38 1.45-1.38 1.42-1-.03-1.75 0-2.62 0-.87 0-1.35-.45-1.34-1.38V85.99c0-1 .41-1.36 1.36-1.33.95.03 1.83 0 2.74 0 .91 0 1.26.34 1.25 1.34-.03 2.74-.01 5.53-.01 8.31Z" fill="#40A95C"/><path d="M34.67 250.17c-2.79 0-5.58-.12-8.37-.12-.95 0-1.32-.29-1.27-1.3.09-1.53 0-3.08 0-4.62 0-.62.14-1.07.89-1.06 3.95 0 7.91 0 11.86.06.1631.027.3214.078.47.15.23.23.45.48.7.69a3.2795 3.2795 0 0 1 1.08 3.77 3.1809 3.1809 0 0 1-1.1948 1.669A3.182 3.182 0 0 1 36.87 250a5.8316 5.8316 0 0 0-2.2.17Z" fill="#4D8CF4"/><path d="M34.67 250.17a5.8318 5.8318 0 0 1 2.2-.17 3.1815 3.1815 0 0 0 1.9773-.585c.5758-.409.999-.999 1.2027-1.675a3.279 3.279 0 0 0 .0882-2.042A3.2777 3.2777 0 0 0 39 244c-.25-.21-.47-.46-.7-.69 2-.53 3.91 1.39 3.93 3.4a18.7507 18.7507 0 0 1-2.36 9.7 15.0803 15.0803 0 0 1-5.12 5.35 3.6901 3.6901 0 0 1-1.37.58l-3.29-6c1.68-1.21 3.33-2.45 4.14-4.48.1809-.554.3279-1.118.44-1.69Z" fill="#40A95C"/><path d="M58 98.11a5.4737 5.4737 0 0 1-1.6425 3.855 5.4712 5.4712 0 0 1-3.8875 1.565 5.477 5.477 0 0 1-3.8553-1.642A5.478 5.478 0 0 1 47.05 98a5.475 5.475 0 0 1 5.53-5.42A5.475 5.475 0 0 1 58 98.11Z" fill="#FABF13"/><path d="M37.07 203.47a9.7492 9.7492 0 0 0-6.35-3.06 3.1917 3.1917 0 0 1-2.0339-1.167A3.1918 3.1918 0 0 1 28 197a3.2385 3.2385 0 0 1 .8006-2.105 3.2374 3.2374 0 0 1 1.9794-1.075c3.58-.53 9.21 2.23 11 5.4.48 2.84-1.35 4.76-4.12 4.26a4.3031 4.3031 0 0 0-.59-.01Z" fill="#40A95C"/><path d="M68.25 89.85a5.5 5.5 0 1 1-.06 11 5.6928 5.6928 0 0 1-3.865-1.6431A5.6904 5.6904 0 0 1 62.64 95.36a5.5303 5.5303 0 0 1 5.61-5.51Zm0 3.14a2.1408 2.1408 0 0 0-1.692.6299 2.1408 2.1408 0 0 0-.608 1.7001 2.2905 2.2905 0 0 0 2.7549 2.2123 2.2902 2.2902 0 0 0 1.6478-3.1254A2.29 2.29 0 0 0 68.24 93l.01-.01Z" fill="#4D8CF4"/><path d="M22.52 170.16c0-1.46 0-2.93 1.1-4.09a2.9982 2.9982 0 0 1 1.6844-.988 3.0047 3.0047 0 0 1 1.9356.258 2.9978 2.9978 0 0 1 1.4883 1.277c.3391.58.4735 1.257.3817 1.923a7.2995 7.2995 0 0 0 .69 4.57c.3249.752.3574 1.599.091 2.374a3.2905 3.2905 0 0 1-1.531 1.816 3.3874 3.3874 0 0 1-2.359.178 3.3922 3.3922 0 0 1-1.901-1.408 10.838 10.838 0 0 1-1.58-5.91Z" fill="#F6BB34"/><path d="M33 97.43a4.57 4.57 0 0 1 4.72-4.57 4.6202 4.6202 0 0 1 4.3951 6.4748 4.6188 4.6188 0 0 1-1.0711 1.5132c-.4556.427-.993.757-1.5798.971a4.636 4.636 0 0 1-1.8342.271 4.5674 4.5674 0 0 1-1.7884-.339 4.557 4.557 0 0 1-1.5144-1.01 4.5597 4.5597 0 0 1-1.0001-1.5204A4.5706 4.5706 0 0 1 33 97.43ZM33.71 156.52a3.345 3.345 0 0 1 2.2852.644 3.3482 3.3482 0 0 1 1.2848 1.996 3.0798 3.0798 0 0 1-1.73 3.4c-1.46.59-2.87 1.23-4.27 2a3.1142 3.1142 0 0 1-2.2293.176 3.111 3.111 0 0 1-1.7707-1.366 3.2086 3.2086 0 0 1-.4563-2.214 3.2094 3.2094 0 0 1 1.1163-1.966 11.4244 11.4244 0 0 1 5.77-2.67Z" fill="#E84D43"/><path d="M66.47 136.34a9.4485 9.4485 0 0 1-1.47 3.92 3.4601 3.4601 0 0 1-1.8059 1.249A3.4564 3.4564 0 0 1 61 141.42a3.3901 3.3901 0 0 1-2.08-3.6 11.202 11.202 0 0 1 1.29-3.82 3.4103 3.4103 0 0 1 3.92-1.41c1.45.41 2.38 1.75 2.34 3.75Z" fill="#40A95C"/><path d="M17.5 170a3.9213 3.9213 0 0 1-1.1302 2.725 3.9225 3.9225 0 0 1-2.7098 1.165 4.1788 4.1788 0 0 1-2.7795-1.221A4.177 4.177 0 0 1 9.66 169.89c.0576-1.03.5013-2 1.2427-2.718a4.1033 4.1033 0 0 1 2.7573-1.152 3.7851 3.7851 0 0 1 1.5112.291c.4785.199.9111.494 1.271.867.3599.373.6395.816.8214 1.301.182.486.2624 1.003.2364 1.521Z" fill="#4D8CF4"/><path d="M47.17 133a3.3142 3.3142 0 0 1 1.6904.454A3.319 3.319 0 0 1 50 138.08c-.79 1.31-1.61 2.63-3.31 2.95a3.1148 3.1148 0 0 1-1.7782-.086A3.113 3.113 0 0 1 43.47 139.9a2.9088 2.9088 0 0 1-.8154-1.656A2.9112 2.9112 0 0 1 43 136.43c1-1.6 1.85-3.43 4.17-3.43Z" fill="#F6BB34"/><path d="M17.8 136a3.7084 3.7084 0 0 1-1.4978-.221 3.6985 3.6985 0 0 1-1.284-.802 3.7003 3.7003 0 0 1-.8551-1.25 3.6975 3.6975 0 0 1-.2831-1.487c-.0238-.77.1824-1.53.5922-2.183a3.8794 3.8794 0 0 1 5.9718-.737 3.8835 3.8835 0 0 1 1.1051 1.974 3.8781 3.8781 0 0 1-.1832 2.254 3.8744 3.8744 0 0 1-1.4094 1.769A3.8754 3.8754 0 0 1 17.8 136Z" fill="#4D8CF4"/><path d="M37.07 203.47c.2076.001.4149.018.62.05 2.77.5 4.6-1.42 4.12-4.26a6.208 6.208 0 0 1 2.12 3 10.7318 10.7318 0 0 1 1.15 5.54c-.39.05-.49.39-.69.64a3.2437 3.2437 0 0 1-2.377 1.349 3.24 3.24 0 0 1-2.563-.949 1.7809 1.7809 0 0 0-.89-.63c.01-1.75-.85-3.21-1.49-4.74Z" fill="#F6BB34"/><path d="M29.48 131.07c.08-2.67 1.49-4.29 3.72-4.24.4594-.002.9144.09 1.3371.27a3.357 3.357 0 0 1 1.1217.776 3.3778 3.3778 0 0 1 .9312 2.504c-.05 2.65-1.64 4.54-3.73 4.43a3.5436 3.5436 0 0 1-1.3528-.333 3.5414 3.5414 0 0 1-1.8319-2.027 3.546 3.546 0 0 1-.1953-1.38Z" fill="#E84D43"/><path d="M30.91 205a3.4891 3.4891 0 0 1 2.4004.983 3.4873 3.4873 0 0 1 1.0596 2.367 3.6905 3.6905 0 0 1-1.0596 2.383 3.69 3.69 0 0 1-2.3704 1.087 3.4911 3.4911 0 0 1-2.3861-1.039 3.4894 3.4894 0 0 1-1.0039-2.401 3.308 3.308 0 0 1 .2361-1.3 3.315 3.315 0 0 1 .7257-1.104 3.3065 3.3065 0 0 1 1.0997-.732A3.3018 3.3018 0 0 1 30.91 205ZM18.67 100.24a4.5599 4.5599 0 0 1-1.854-.2707A4.5698 4.5698 0 0 1 13.82 95.59a4.7903 4.7903 0 0 1 2.8445-4.5176 4.7901 4.7901 0 0 1 6.3994 6.1356 4.7895 4.7895 0 0 1-1.7354 2.1848 4.787 4.787 0 0 1-2.6585.8472Z" fill="#4D8CF4"/><path d="M41.25 360.9a20.7816 20.7816 0 0 0-.29-3.4H23.64v6.76h9.92a8.3626 8.3626 0 0 1-1.2965 3.057 8.3639 8.3639 0 0 1-2.3835 2.313v4.5h5.91a17.3812 17.3812 0 0 0 5.46-13.23Z" fill="#4285F4"/><path d="M23.64 378.5a17.7488 17.7488 0 0 0 12.15-4.36l-5.91-4.5a11.2999 11.2999 0 0 1-6.24 1.74 10.9955 10.9955 0 0 1-6.3388-2.08 10.995 10.995 0 0 1-3.9712-5.36h-6.1v4.63a18.3888 18.3888 0 0 0 16.41 9.93Z" fill="#34A853"/><path d="M13.33 363.93a10.0474 10.0474 0 0 1-.59-3.43 10.621 10.621 0 0 1 .59-3.44v-4.63h-6.1a17.4399 17.4399 0 0 0 0 16.14l6.1-4.64Z" fill="#FBBC05"/><path d="M23.64 349.62a10.1288 10.1288 0 0 1 7.05 2.7l5.24-5.13a17.7922 17.7922 0 0 0-12.29-4.69 18.3895 18.3895 0 0 0-16.41 9.93l6.1 4.63a10.995 10.995 0 0 1 3.9712-5.36 10.9955 10.9955 0 0 1 6.3388-2.08Z" fill="#EA4335"/><path d="M41.25 322.9a20.7816 20.7816 0 0 0-.29-3.4H23.64v6.76h9.92a8.3626 8.3626 0 0 1-1.2965 3.057 8.3639 8.3639 0 0 1-2.3835 2.313v4.5h5.91a17.3812 17.3812 0 0 0 5.46-13.23Z" fill="#4285F4"/><path d="M23.64 304.5a18.3898 18.3898 0 0 0-16.41 9.93 17.4686 17.4686 0 0 0-1.72 5.07l7.26 2.33a10.648 10.648 0 0 1 .56-2.77 10.995 10.995 0 0 1 3.9712-5.36 10.9957 10.9957 0 0 1 6.3388-2.08c1.6711-.018 3.3217.37 4.81 1.13l3.55-6.32a18.2462 18.2462 0 0 0-8.36-1.93Z" fill="#EA4335"/><path d="M31.74 330a8.8554 8.8554 0 0 1-1.86 1.63 11.2999 11.2999 0 0 1-6.24 1.74 10.9955 10.9955 0 0 1-6.3388-2.08 10.995 10.995 0 0 1-3.9712-5.36h-6.1v4.63a18.3888 18.3888 0 0 0 16.41 9.93 17.7488 17.7488 0 0 0 12.15-4.36 15.447 15.447 0 0 0 2.48-2.87L31.74 330Z" fill="#34A853"/><path d="M13.33 325.94a10.0474 10.0474 0 0 1-.59-3.43v-.67l-7.23-2.34a17.4393 17.4393 0 0 0 1.72 11.07 17.9936 17.9936 0 0 0 3.36 4.58l4.53-5.93a11.0002 11.0002 0 0 1-1.79-3.28ZM16.6 301.13l2.21-6.9a11.0001 11.0001 0 0 1-5.48-6.29 8.5706 8.5706 0 0 1-.36-1.25l-7.48.68a17.5834 17.5834 0 0 0 1.74 5.21 18.3137 18.3137 0 0 0 9.37 8.55Z" fill="#FBBC05"/><path d="M33.14 289.67a8.3732 8.3732 0 0 1-3.26 4 11.2999 11.2999 0 0 1-6.24 1.74 10.7078 10.7078 0 0 1-5.07-1.28L16.38 301a18.6418 18.6418 0 0 0 7.26 1.46 17.7487 17.7487 0 0 0 12.15-4.36 16.1968 16.1968 0 0 0 4.71-7.71l-7.36-.72Z" fill="#34A853"/><path d="M12.74 284.5a10.621 10.621 0 0 1 .59-3.44 10.995 10.995 0 0 1 3.9712-5.36 10.9955 10.9955 0 0 1 6.3388-2.08h.13l.21-7.12h-.34a18.3898 18.3898 0 0 0-16.41 9.93 17.4506 17.4506 0 0 0-2 8.07c-.001 1.21.1264 2.417.38 3.6l7.61-.44a10.0492 10.0492 0 0 1-.48-3.16Z" fill="#EA4335"/><path d="M23.64 281.5v6.76h9.92A8.7389 8.7389 0 0 1 33 290h.11l7.24.91c.5932-1.944.8866-3.967.87-6a20.7816 20.7816 0 0 0-.29-3.4l-17.29-.01Z" fill="#4285F4"/></svg>