<svg width="35" height="29" xmlns="http://www.w3.org/2000/svg"><path d="M0 25.08c3.821.313 7.27-.604 10.397-2.88-3.264-.27-5.448-1.848-6.657-4.814 1.099.14 2.118.152 3.154-.13-4.07-.959-5.747-4.455-5.608-6.839.978.457 1.978.786 3.17.814C2.65 9.957 1.613 8.328 1.367 6.276c-.178-1.485.115-2.898.916-4.231 3.858 4.389 8.734 6.802 14.696 7.208-.044-.408-.107-.781-.123-1.157-.119-2.792 1.07-4.927 3.513-6.389 2.607-1.56 6.23-1.169 8.438.893.278.26.51.316.886.227a15.41 15.41 0 003.934-1.521c.002.85-1.212 2.408-2.846 3.75.418-.073.84-.133 1.253-.225.44-.098.878-.214 1.309-.347.417-.128.823-.287 1.234-.432l.07.07c-.57.644-1.11 1.315-1.716 1.925-.485.488-1.041.91-1.582 1.344a.522.522 0 00-.223.472c.09 4.791-1.39 9.094-4.401 12.884-3.05 3.84-7.072 6.19-11.996 7.056-3.735.658-7.402.385-10.973-.889A17.883 17.883 0 010 25.081" fill="#000" fill-rule="evenodd"/></svg>